# xmcd
#
# Track frame offsets: 
#        150
#        14868
#        25608
#        38191
#        50063
#        67218
#        87682
#        98665
#        112881
#        121643
#        133290
#        143463
#        165287
#
# Disc length: 2468 seconds
#
# Revision: 0
# Processed by: cddbd v1.5.2PL0 Copyright (c) Steve Scherf et al.
# Submitted via: ExactAudioCopy v0.99pb5
#
DISCID=ae09a20d
DTITLE=I Exist - II: The Broken Passage
DYEAR=2011
DGENRE=Metal
TTITLE0=Winters End
TTITLE1=Ghost of a King
TTITLE2=Wyverns Keep
TTITLE3=Blades Ruin
TTITLE4=Black Unicorn
TTITLE5=The Riders Ode
TTITLE6=Acid Strain
TTITLE7=Lungs of Mire
TTITLE8=Fleshold
TTITLE9=Mammoth Falls
TTITLE10=Immortal Mare
TTITLE11=Wretched Earth
TTITLE12=Return to the Cosmos
EXTD=
EXTT0=
EXTT1=
EXTT2=
EXTT3=
EXTT4=
EXTT5=
EXTT6=
EXTT7=
EXTT8=
EXTT9=
EXTT10=
EXTT11=
EXTT12=
PLAYORDER=
